# Blender v2.77 (sub 0) OBJ File: ''
# www.blender.org
mtllib cylinderProject2.mtl
o Cylinder
v -0.041428 -1.947166 0.028648
v -0.041428 2.052834 0.028648
v -0.041428 -1.947166 -0.971352
v -0.041428 2.052834 -0.971352
v 0.153663 -1.947166 -0.952137
v 0.153663 2.052834 -0.952137
v 0.341256 -1.947166 -0.895231
v 0.341256 2.052834 -0.895231
v 0.514143 -1.947166 -0.802821
v 0.514143 2.052834 -0.802821
v 0.665679 -1.947166 -0.678458
v 0.665679 2.052834 -0.678458
v 0.790042 -1.947166 -0.526922
v 0.790042 2.052834 -0.526922
v 0.882452 -1.947166 -0.354035
v 0.882452 2.052834 -0.354035
v 0.939358 -1.947166 -0.166442
v 0.939358 2.052834 -0.166442
v 0.958572 -1.947166 0.028648
v 0.958572 2.052834 0.028648
v 0.939358 -1.947166 0.223739
v 0.939358 2.052834 0.223739
v 0.882452 -1.947166 0.411332
v 0.882452 2.052834 0.411332
v 0.790042 -1.947166 0.584219
v 0.790042 2.052834 0.584219
v 0.665679 -1.947166 0.735755
v 0.665679 2.052834 0.735755
v 0.514143 -1.947166 0.860118
v 0.514143 2.052834 0.860118
v 0.341256 -1.947166 0.952528
v 0.341256 2.052834 0.952528
v 0.153662 -1.947166 1.009434
v 0.153662 2.052834 1.009434
v -0.041428 -1.947166 1.028648
v -0.041428 2.052834 1.028648
v -0.236518 -1.947166 1.009434
v -0.236518 2.052834 1.009434
v -0.424111 -1.947166 0.952528
v -0.424111 2.052834 0.952528
v -0.596998 -1.947166 0.860118
v -0.596998 2.052834 0.860118
v -0.748535 -1.947166 0.735755
v -0.748535 2.052834 0.735755
v -0.872898 -1.947166 0.584218
v -0.872898 2.052834 0.584218
v -0.965307 -1.947166 0.411331
v -0.965307 2.052834 0.411331
v -1.022213 -1.947166 0.223738
v -1.022213 2.052834 0.223738
v -1.041428 -1.947166 0.028647
v -1.041428 2.052834 0.028647
v -1.022213 -1.947166 -0.166443
v -1.022213 2.052834 -0.166443
v -0.965307 -1.947166 -0.354036
v -0.965307 2.052834 -0.354036
v -0.872897 -1.947166 -0.526923
v -0.872897 2.052834 -0.526923
v -0.748533 -1.947166 -0.678459
v -0.748533 2.052834 -0.678459
v -0.596997 -1.947166 -0.802822
v -0.596997 2.052834 -0.802822
v -0.424110 -1.947166 -0.895232
v -0.424110 2.052834 -0.895232
v -0.236516 -1.947166 -0.952137
v -0.236516 2.052834 -0.952137
vn 0.0000 -1.0000 0.0000
vn 0.0000 1.0000 0.0000
vn 0.0980 0.0000 -0.9952
vn 0.2903 0.0000 -0.9569
vn 0.4714 0.0000 -0.8819
vn 0.6344 0.0000 -0.7730
vn 0.7730 0.0000 -0.6344
vn 0.8819 0.0000 -0.4714
vn 0.9569 0.0000 -0.2903
vn 0.9952 0.0000 -0.0980
vn 0.9952 0.0000 0.0980
vn 0.9569 0.0000 0.2903
vn 0.8819 0.0000 0.4714
vn 0.7730 0.0000 0.6344
vn 0.6344 0.0000 0.7730
vn 0.4714 0.0000 0.8819
vn 0.2903 0.0000 0.9569
vn 0.0980 0.0000 0.9952
vn -0.0980 0.0000 0.9952
vn -0.2903 0.0000 0.9569
vn -0.4714 0.0000 0.8819
vn -0.6344 0.0000 0.7730
vn -0.7730 0.0000 0.6344
vn -0.8819 0.0000 0.4714
vn -0.9569 0.0000 0.2903
vn -0.9952 0.0000 0.0980
vn -0.9952 0.0000 -0.0980
vn -0.9569 0.0000 -0.2903
vn -0.8819 0.0000 -0.4714
vn -0.7730 0.0000 -0.6344
vn -0.6344 0.0000 -0.7730
vn -0.4714 0.0000 -0.8819
vn -0.2903 0.0000 -0.9569
vn -0.0980 0.0000 -0.9952
usemtl None
s off
f 1//1 3//1 5//1
f 2//2 6//2 4//2
f 4//3 5//3 3//3
f 1//1 5//1 7//1
f 2//2 8//2 6//2
f 6//4 7//4 5//4
f 1//1 7//1 9//1
f 2//2 10//2 8//2
f 8//5 9//5 7//5
f 1//1 9//1 11//1
f 2//2 12//2 10//2
f 10//6 11//6 9//6
f 1//1 11//1 13//1
f 2//2 14//2 12//2
f 12//7 13//7 11//7
f 1//1 13//1 15//1
f 2//2 16//2 14//2
f 14//8 15//8 13//8
f 1//1 15//1 17//1
f 2//2 18//2 16//2
f 16//9 17//9 15//9
f 1//1 17//1 19//1
f 2//2 20//2 18//2
f 18//10 19//10 17//10
f 1//1 19//1 21//1
f 2//2 22//2 20//2
f 20//11 21//11 19//11
f 1//1 21//1 23//1
f 2//2 24//2 22//2
f 22//12 23//12 21//12
f 1//1 23//1 25//1
f 2//2 26//2 24//2
f 24//13 25//13 23//13
f 1//1 25//1 27//1
f 2//2 28//2 26//2
f 26//14 27//14 25//14
f 1//1 27//1 29//1
f 2//2 30//2 28//2
f 28//15 29//15 27//15
f 1//1 29//1 31//1
f 2//2 32//2 30//2
f 30//16 31//16 29//16
f 1//1 31//1 33//1
f 2//2 34//2 32//2
f 32//17 33//17 31//17
f 1//1 33//1 35//1
f 2//2 36//2 34//2
f 34//18 35//18 33//18
f 1//1 35//1 37//1
f 2//2 38//2 36//2
f 36//19 37//19 35//19
f 1//1 37//1 39//1
f 2//2 40//2 38//2
f 38//20 39//20 37//20
f 1//1 39//1 41//1
f 2//2 42//2 40//2
f 40//21 41//21 39//21
f 1//1 41//1 43//1
f 2//2 44//2 42//2
f 42//22 43//22 41//22
f 1//1 43//1 45//1
f 2//2 46//2 44//2
f 44//23 45//23 43//23
f 1//1 45//1 47//1
f 2//2 48//2 46//2
f 46//24 47//24 45//24
f 1//1 47//1 49//1
f 2//2 50//2 48//2
f 48//25 49//25 47//25
f 1//1 49//1 51//1
f 2//2 52//2 50//2
f 50//26 51//26 49//26
f 1//1 51//1 53//1
f 2//2 54//2 52//2
f 52//27 53//27 51//27
f 1//1 53//1 55//1
f 2//2 56//2 54//2
f 54//28 55//28 53//28
f 1//1 55//1 57//1
f 2//2 58//2 56//2
f 56//29 57//29 55//29
f 1//1 57//1 59//1
f 2//2 60//2 58//2
f 58//30 59//30 57//30
f 1//1 59//1 61//1
f 2//2 62//2 60//2
f 60//31 61//31 59//31
f 1//1 61//1 63//1
f 2//2 64//2 62//2
f 62//32 63//32 61//32
f 1//1 63//1 65//1
f 2//2 66//2 64//2
f 64//33 65//33 63//33
f 1//1 65//1 3//1
f 2//2 4//2 66//2
f 66//34 3//34 65//34
f 4//3 6//3 5//3
f 6//4 8//4 7//4
f 8//5 10//5 9//5
f 10//6 12//6 11//6
f 12//7 14//7 13//7
f 14//8 16//8 15//8
f 16//9 18//9 17//9
f 18//10 20//10 19//10
f 20//11 22//11 21//11
f 22//12 24//12 23//12
f 24//13 26//13 25//13
f 26//14 28//14 27//14
f 28//15 30//15 29//15
f 30//16 32//16 31//16
f 32//17 34//17 33//17
f 34//18 36//18 35//18
f 36//19 38//19 37//19
f 38//20 40//20 39//20
f 40//21 42//21 41//21
f 42//22 44//22 43//22
f 44//23 46//23 45//23
f 46//24 48//24 47//24
f 48//25 50//25 49//25
f 50//26 52//26 51//26
f 52//27 54//27 53//27
f 54//28 56//28 55//28
f 56//29 58//29 57//29
f 58//30 60//30 59//30
f 60//31 62//31 61//31
f 62//32 64//32 63//32
f 64//33 66//33 65//33
f 66//34 4//34 3//34
